<svg xmlns="http://www.w3.org/2000/svg" viewBox="0 0 608.61 425.99"><defs><style>.cls-1{fill:#fff;}.cls-1,.cls-2{stroke:#ef4038;stroke-miterlimit:10;}.cls-2{fill:#c7eafb;}</style></defs><title>building-redo</title><g id="back"><polygon class="cls-1" points="208.7 1.01 208.7 416.45 592.04 403.93 587.43 225.06 208.7 1.01"/><polygon class="cls-1" points="208.7 1.01 34.05 133.28 34.05 384.34 208.7 416.45 208.7 1.01"/></g><g id="middle"><polygon class="cls-1" points="266.49 49.16 604.88 243.72 608.09 390.12 266.49 384.59 251.08 188.5 266.49 195.56 266.49 49.16"/><polygon class="cls-2" points="299.56 137.78 588.83 268.76 588.94 282.62 299.56 161.85 299.56 137.78"/><polygon class="cls-1" points="251.08 56.87 251.08 382.42 266.49 384.59 266.49 49.16 251.08 56.87"/></g><g id="front"><polygon class="cls-1" points="545.29 273.82 536.02 275.27 538.41 349.41 547.74 350.31 545.29 273.82"/><polygon class="cls-1" points="109.82 99.89 524.62 266.84 527.83 348.39 547.74 350.31 545.29 273.82 588.94 292 590.87 377.94 109.82 348.71 109.82 99.89"/><polygon class="cls-1" points="109.82 99.89 0.5 175.34 0.5 332.33 109.82 348.71 109.82 99.89"/><polygon class="cls-2" points="475.46 341.74 439.31 337.08 436.93 250.47 472.74 260.91 475.46 341.74"/></g><g id="entry"><polygon class="cls-1" points="310.48 212.58 311.82 361.03 296.03 360.07 296.03 413.6 384.82 425.04 383.04 199.1 310.48 212.58"/><polygon class="cls-1" points="383.04 199.1 464.26 254 464.26 271.98 391.06 228.63 392.99 419.34 384.82 425.04 383.04 199.1"/><polygon class="cls-1" points="464.26 271.98 438.58 276.15 391.3 251.75 391.06 228.63 464.26 271.98"/><polygon class="cls-1" points="438.58 276.15 439.9 408.9 392.9 410.43 391.3 251.75 438.58 276.15"/><polygon class="cls-2" points="431.04 409.19 429.59 281.29 391.3 261.78 392.9 410.43 431.04 409.19"/></g><g id="windows"><polygon class="cls-2" points="83.84 318.38 13.18 308.21 13.18 187.19 83.84 149.45 83.84 318.38"/><polygon class="cls-2" points="292.41 331.89 144.79 318.38 144.79 149.45 292.41 204.88 292.41 331.89"/><polygon class="cls-2" points="299.56 118.99 299.56 92.03 588.94 244.2 588.94 258.17 299.56 118.99"/><polygon class="cls-2" points="585.2 334.4 553.36 328.58 552.39 292.68 584.73 303.5 585.2 334.4"/><polygon class="cls-2" points="519.74 346.63 488.42 342.59 486.25 263.68 516.66 272.57 519.74 346.63"/></g></svg>